<mxfile host="app.diagrams.net" agent="Mozilla/5.0 (X11; Linux x86_64) AppleWebKit/537.36 (KHTML, like Gecko) Chrome/128.0.0.0 Safari/537.36" version="24.7.15">
  <diagram name="Page-1" id="-rCoMOn814kDl9n-Cfov">
    <mxGraphModel dx="841" dy="476" grid="1" gridSize="10" guides="1" tooltips="1" connect="1" arrows="1" fold="1" page="1" pageScale="1" pageWidth="850" pageHeight="1100" math="0" shadow="0">
      <root>
        <mxCell id="0" />
        <mxCell id="1" parent="0" />
        <mxCell id="9XjUcPw-OQTC7Kf0kXDq-8" style="edgeStyle=orthogonalEdgeStyle;rounded=0;orthogonalLoop=1;jettySize=auto;html=1;entryX=0;entryY=0.5;entryDx=0;entryDy=0;" edge="1" parent="1" source="9XjUcPw-OQTC7Kf0kXDq-1" target="9XjUcPw-OQTC7Kf0kXDq-2">
          <mxGeometry relative="1" as="geometry" />
        </mxCell>
        <mxCell id="9XjUcPw-OQTC7Kf0kXDq-1" value="SENSOR" style="rounded=0;whiteSpace=wrap;html=1;" vertex="1" parent="1">
          <mxGeometry x="80" y="280" width="80" height="40" as="geometry" />
        </mxCell>
        <mxCell id="9XjUcPw-OQTC7Kf0kXDq-9" style="edgeStyle=orthogonalEdgeStyle;rounded=0;orthogonalLoop=1;jettySize=auto;html=1;" edge="1" parent="1" source="9XjUcPw-OQTC7Kf0kXDq-2" target="9XjUcPw-OQTC7Kf0kXDq-3">
          <mxGeometry relative="1" as="geometry" />
        </mxCell>
        <mxCell id="9XjUcPw-OQTC7Kf0kXDq-2" value="RASPI" style="rounded=0;whiteSpace=wrap;html=1;" vertex="1" parent="1">
          <mxGeometry x="200" y="280" width="80" height="40" as="geometry" />
        </mxCell>
        <mxCell id="9XjUcPw-OQTC7Kf0kXDq-10" style="edgeStyle=orthogonalEdgeStyle;rounded=0;orthogonalLoop=1;jettySize=auto;html=1;" edge="1" parent="1" source="9XjUcPw-OQTC7Kf0kXDq-3" target="9XjUcPw-OQTC7Kf0kXDq-4">
          <mxGeometry relative="1" as="geometry" />
        </mxCell>
        <mxCell id="9XjUcPw-OQTC7Kf0kXDq-11" style="edgeStyle=orthogonalEdgeStyle;rounded=0;orthogonalLoop=1;jettySize=auto;html=1;" edge="1" parent="1" source="9XjUcPw-OQTC7Kf0kXDq-3" target="9XjUcPw-OQTC7Kf0kXDq-5">
          <mxGeometry relative="1" as="geometry" />
        </mxCell>
        <mxCell id="9XjUcPw-OQTC7Kf0kXDq-3" value="MQTT" style="rounded=0;whiteSpace=wrap;html=1;" vertex="1" parent="1">
          <mxGeometry x="320" y="280" width="80" height="40" as="geometry" />
        </mxCell>
        <mxCell id="9XjUcPw-OQTC7Kf0kXDq-12" style="edgeStyle=orthogonalEdgeStyle;rounded=0;orthogonalLoop=1;jettySize=auto;html=1;entryX=0;entryY=0.5;entryDx=0;entryDy=0;" edge="1" parent="1" source="9XjUcPw-OQTC7Kf0kXDq-4" target="9XjUcPw-OQTC7Kf0kXDq-6">
          <mxGeometry relative="1" as="geometry" />
        </mxCell>
        <mxCell id="9XjUcPw-OQTC7Kf0kXDq-4" value="Mariadb" style="rounded=0;whiteSpace=wrap;html=1;" vertex="1" parent="1">
          <mxGeometry x="440" y="240" width="80" height="40" as="geometry" />
        </mxCell>
        <mxCell id="9XjUcPw-OQTC7Kf0kXDq-14" style="edgeStyle=orthogonalEdgeStyle;rounded=0;orthogonalLoop=1;jettySize=auto;html=1;entryX=0;entryY=0.5;entryDx=0;entryDy=0;" edge="1" parent="1" source="9XjUcPw-OQTC7Kf0kXDq-5" target="9XjUcPw-OQTC7Kf0kXDq-7">
          <mxGeometry relative="1" as="geometry" />
        </mxCell>
        <mxCell id="9XjUcPw-OQTC7Kf0kXDq-5" value="WS" style="rounded=0;whiteSpace=wrap;html=1;" vertex="1" parent="1">
          <mxGeometry x="500" y="320" width="80" height="40" as="geometry" />
        </mxCell>
        <mxCell id="9XjUcPw-OQTC7Kf0kXDq-13" style="edgeStyle=orthogonalEdgeStyle;rounded=0;orthogonalLoop=1;jettySize=auto;html=1;" edge="1" parent="1" source="9XjUcPw-OQTC7Kf0kXDq-6" target="9XjUcPw-OQTC7Kf0kXDq-7">
          <mxGeometry relative="1" as="geometry" />
        </mxCell>
        <mxCell id="9XjUcPw-OQTC7Kf0kXDq-6" value="HTTP" style="rounded=0;whiteSpace=wrap;html=1;" vertex="1" parent="1">
          <mxGeometry x="560" y="240" width="80" height="40" as="geometry" />
        </mxCell>
        <mxCell id="9XjUcPw-OQTC7Kf0kXDq-7" value="Frontend" style="rounded=0;whiteSpace=wrap;html=1;" vertex="1" parent="1">
          <mxGeometry x="680" y="280" width="80" height="40" as="geometry" />
        </mxCell>
      </root>
    </mxGraphModel>
  </diagram>
</mxfile>
